<svg width="1034" height="271" viewBox="0 0 1034 271" fill="none" xmlns="http://www.w3.org/2000/svg">
<path d="M569.109 98.4472H620.485L684.443 12.7983H633.067L569.109 98.4472Z" fill="#9C78FF"/>
<path d="M703.973 196.878H751.277L898.291 0H850.988L703.973 196.878Z" fill="#9C78FF"/>
<path d="M981.763 98.4473L917.821 184.096H969.197L1033.16 98.4473H981.763Z" fill="#9C78FF"/>
<path d="M38.0623 39.1934H6V166.512H38.0623V39.1934Z" fill="#9C78FF"/>
<path d="M162.837 39.4258H130.775V97.0515C130.925 97.0515 130.958 98.1817 130.891 100.426C130.808 102.669 130.775 105.262 130.775 108.204L91.9646 39.4258H61.5312V166.511H93.5935V101.456L101.489 116.332L130.293 166.511H162.821V39.4258H162.837Z" fill="#9C78FF"/>
<path d="M255.301 97.0515C255.451 97.0515 255.501 98.1817 255.418 100.426C255.334 102.669 255.301 105.262 255.301 108.204L216.507 39.4258H186.074V166.511H218.136V101.456L226.031 116.332L254.836 166.511H287.363V39.4258H255.301V97.0515Z" fill="#9C78FF"/>
<path d="M399.589 48.3682C394.636 44.7282 388.985 42.019 382.636 40.2405C376.286 38.4621 369.771 37.5645 363.123 37.5645C356.624 37.5645 350.191 38.4621 343.842 40.2405C337.493 42.019 331.875 44.7282 326.988 48.3682C322.118 52.0083 318.162 56.5791 315.137 62.0807C312.112 67.5823 310.6 73.9649 310.6 81.2449V124.693C310.6 131.973 312.112 138.322 315.137 143.741C318.162 149.159 322.151 153.697 327.104 157.337C332.058 160.977 337.709 163.686 344.058 165.464C350.407 167.243 356.84 168.14 363.339 168.14C370.004 168.14 376.469 167.243 382.736 165.464C389.002 163.686 394.62 160.977 399.589 157.337C404.542 153.697 408.532 149.159 411.557 143.741C414.582 138.322 416.094 131.973 416.094 124.693V81.2449C416.094 73.9649 414.582 67.5823 411.557 62.0807C408.532 56.5791 404.542 52.0083 399.589 48.3682ZM383.783 124.693C383.783 129.18 381.655 132.588 377.4 134.915C373.145 137.242 368.458 138.405 363.339 138.405C360.862 138.405 358.385 138.139 355.909 137.591C353.432 137.059 351.189 136.195 349.177 135.031C347.166 133.868 345.571 132.438 344.407 130.726C343.244 129.031 342.662 127.003 342.662 124.693V81.2449C342.662 78.918 343.244 76.8237 344.407 74.9787C345.571 73.1172 347.116 71.6047 349.061 70.4578C350.989 69.2943 353.166 68.4133 355.576 67.7817C357.97 67.1668 360.413 66.851 362.89 66.851C365.516 66.851 368.076 67.117 370.552 67.6655C373.029 68.214 375.273 69.0616 377.284 70.2251C379.295 71.3886 380.891 72.9011 382.037 74.7626C383.201 76.6242 383.783 78.785 383.783 81.2616V124.693Z" fill="#9C78FF"/>
<path d="M525.046 53.371C521.173 49.1824 516.336 45.8249 510.519 43.2653C504.718 40.7056 497.937 39.4258 490.191 39.4258H439.314V166.511H471.376V129.346H490.191C497.937 129.346 504.718 128.067 510.519 125.507C516.32 122.947 521.173 119.54 525.046 115.285C528.919 111.03 531.811 106.193 533.755 100.758C535.684 95.3395 536.664 89.8379 536.664 84.2698C536.664 78.6851 535.7 73.2001 533.755 67.765C531.827 62.3465 528.919 57.5429 525.046 53.371ZM500.995 95.888C498.585 99.1457 494.995 100.775 490.191 100.775H471.376V69.4104H490.191C494.995 69.4104 498.585 71.0393 500.995 74.2804C503.389 77.5382 504.602 81.1284 504.602 85.0842C504.602 89.04 503.405 92.6302 500.995 95.888Z" fill="#201C2D"/>
<path d="M651.433 109.018C655.772 102.286 657.949 93.0281 657.949 81.2603C657.783 73.8307 656.47 67.4315 653.993 62.0961C651.517 56.7441 648.192 52.4225 644.004 49.0817C639.832 45.7574 634.862 43.3142 629.144 41.7684C623.41 40.2226 617.294 39.4414 610.795 39.4414H559.917V166.527H592.445V129.661L633.084 184.096H684.46L637.455 121.151C643.256 118.475 647.943 114.453 651.433 109.018ZM611.243 69.3928C616.363 69.3928 620.152 70.9053 622.629 73.9137C625.105 76.9388 626.352 80.263 626.352 83.903C626.352 87.5431 625.105 90.8673 622.629 93.8924C620.152 96.9174 616.363 98.4134 611.243 98.4134H592.428V69.3762H611.243V69.3928Z" fill="#201C2D"/>
<path d="M770.159 48.3682C765.205 44.7282 759.554 42.019 753.205 40.2405C746.856 38.4621 740.34 37.5645 733.692 37.5645C727.193 37.5645 720.76 38.4621 714.411 40.2405C708.062 42.019 702.444 44.7282 697.557 48.3682C692.687 52.0083 688.731 56.5791 685.706 62.0807C682.681 67.5823 681.169 73.9649 681.169 81.2449V124.693C681.169 131.973 682.681 138.322 685.706 143.741C688.731 149.159 692.721 153.697 697.674 157.337C702.627 160.977 708.278 163.686 714.627 165.464C720.976 167.243 727.409 168.14 733.908 168.14C740.573 168.14 747.038 167.243 753.305 165.464C759.571 163.686 765.189 160.977 770.159 157.337C775.112 153.697 779.101 149.159 782.126 143.741C785.151 138.322 786.663 131.973 786.663 124.693V81.2449C786.663 73.9649 785.151 67.5823 782.126 62.0807C779.101 56.5791 775.112 52.0083 770.159 48.3682ZM754.368 124.693C754.368 129.18 752.241 132.588 747.986 134.915C743.731 137.242 739.044 138.405 733.924 138.405C731.448 138.405 728.971 138.139 726.495 137.591C724.018 137.059 721.774 136.195 719.763 135.031C717.752 133.868 716.156 132.438 714.993 130.726C713.829 129.031 713.248 127.003 713.248 124.693V81.2449C713.248 78.918 713.829 76.8237 714.993 74.9787C716.156 73.1172 717.702 71.6047 719.647 70.4578C721.575 69.2943 723.752 68.4133 726.162 67.7817C728.556 67.1668 730.999 66.851 733.476 66.851C736.102 66.851 738.661 67.117 741.138 67.6655C743.614 68.214 745.858 69.0616 747.869 70.2251C749.881 71.3886 751.476 72.9011 752.623 74.7626C753.787 76.6242 754.368 78.785 754.368 81.2616V124.693Z" fill="#201C2D"/>
<path d="M857.636 119.59H879.127V124.244C879.127 129.197 877.182 132.92 873.326 135.397C869.453 137.873 865.198 139.12 860.544 139.12C855.89 139.12 851.635 137.873 847.763 135.397C843.89 132.92 841.962 129.197 841.962 124.244V80.5634C841.962 75.9095 843.774 72.3193 847.414 69.7597C851.054 67.2 855.109 65.9202 859.614 65.9202C863.17 65.9202 866.628 66.8178 869.952 68.5963C873.276 70.3747 875.803 73.2003 877.498 77.073L904.225 64.5241C902.064 59.4214 899.305 55.1497 895.981 51.7424C892.656 48.335 889.016 45.5925 885.061 43.4982C881.105 41.404 876.999 39.8915 872.744 38.9607C868.489 38.0299 864.267 37.5645 860.079 37.5645C853.879 37.5645 847.763 38.4621 841.729 40.2405C835.696 42.019 830.31 44.7282 825.573 48.3682C820.853 52.0083 817.063 56.496 814.188 61.8481C811.329 67.1835 809.883 73.433 809.883 80.5469V124.227C809.883 131.507 811.312 137.907 814.188 143.392C817.047 148.893 820.853 153.464 825.573 157.104C830.294 160.744 835.679 163.486 841.729 165.348C847.763 167.21 853.879 168.14 860.079 168.14C866.428 168.14 872.628 167.21 878.661 165.348C884.695 163.486 890.047 160.744 894.684 157.104C899.338 153.464 903.045 148.893 905.837 143.392C908.629 137.89 910.026 131.507 910.026 124.227V92.6304H877.88L857.636 119.59Z" fill="#201C2D"/>
<path d="M969.197 12.7988H917.821L981.763 98.4477H1033.16L969.197 12.7988Z" fill="#201C2D"/>
<path d="M7.35 255V206H26.46C30.7533 206 34.4167 206.677 37.45 208.03C40.4833 209.383 42.8167 211.343 44.45 213.91C46.0833 216.477 46.9 219.533 46.9 223.08C46.9 226.627 46.0833 229.683 44.45 232.25C42.8167 234.77 40.4833 236.73 37.45 238.13C34.4167 239.483 30.7533 240.16 26.46 240.16H11.2L14.35 236.87V255H7.35ZM14.35 237.57L11.2 234.07H26.25C30.73 234.07 34.1133 233.113 36.4 231.2C38.7333 229.287 39.9 226.58 39.9 223.08C39.9 219.58 38.7333 216.873 36.4 214.96C34.1133 213.047 30.73 212.09 26.25 212.09H11.2L14.35 208.59V237.57ZM78.184 255V206H97.294C101.587 206 105.251 206.677 108.284 208.03C111.317 209.383 113.651 211.343 115.284 213.91C116.917 216.477 117.734 219.533 117.734 223.08C117.734 226.627 116.917 229.683 115.284 232.25C113.651 234.77 111.317 236.707 108.284 238.06C105.251 239.413 101.587 240.09 97.294 240.09H82.034L85.184 236.87V255H78.184ZM110.944 255L98.484 237.22H105.974L118.574 255H110.944ZM85.184 237.57L82.034 234.14H97.084C101.564 234.14 104.947 233.183 107.234 231.27C109.567 229.31 110.734 226.58 110.734 223.08C110.734 219.58 109.567 216.873 107.234 214.96C104.947 213.047 101.564 212.09 97.084 212.09H82.034L85.184 208.59V237.57ZM172.163 255.56C168.43 255.56 164.953 254.93 161.733 253.67C158.56 252.41 155.807 250.66 153.473 248.42C151.14 246.133 149.32 243.473 148.013 240.44C146.707 237.407 146.053 234.093 146.053 230.5C146.053 226.907 146.707 223.593 148.013 220.56C149.32 217.527 151.14 214.89 153.473 212.65C155.807 210.363 158.56 208.59 161.733 207.33C164.907 206.07 168.383 205.44 172.163 205.44C175.897 205.44 179.327 206.07 182.453 207.33C185.627 208.543 188.38 210.293 190.713 212.58C193.093 214.82 194.913 217.457 196.173 220.49C197.48 223.523 198.133 226.86 198.133 230.5C198.133 234.14 197.48 237.477 196.173 240.51C194.913 243.543 193.093 246.203 190.713 248.49C188.38 250.73 185.627 252.48 182.453 253.74C179.327 254.953 175.897 255.56 172.163 255.56ZM172.163 249.33C174.87 249.33 177.367 248.863 179.653 247.93C181.987 246.997 183.993 245.69 185.673 244.01C187.4 242.283 188.73 240.277 189.663 237.99C190.643 235.703 191.133 233.207 191.133 230.5C191.133 227.793 190.643 225.297 189.663 223.01C188.73 220.723 187.4 218.74 185.673 217.06C183.993 215.333 181.987 214.003 179.653 213.07C177.367 212.137 174.87 211.67 172.163 211.67C169.41 211.67 166.867 212.137 164.533 213.07C162.247 214.003 160.24 215.333 158.513 217.06C156.787 218.74 155.433 220.723 154.453 223.01C153.52 225.297 153.053 227.793 153.053 230.5C153.053 233.207 153.52 235.703 154.453 237.99C155.433 240.277 156.787 242.283 158.513 244.01C160.24 245.69 162.247 246.997 164.533 247.93C166.867 248.863 169.41 249.33 172.163 249.33ZM235.107 255.56C232.214 255.56 229.507 254.953 226.987 253.74C224.467 252.527 222.414 250.777 220.827 248.49L224.887 243.73C226.24 245.597 227.757 247.043 229.437 248.07C231.164 249.05 233.054 249.54 235.107 249.54C240.707 249.54 243.507 246.227 243.507 239.6V212.09H225.797V206H250.437V239.25C250.437 244.71 249.13 248.793 246.517 251.5C243.95 254.207 240.147 255.56 235.107 255.56ZM292.066 227.14H317.266V233.09H292.066V227.14ZM292.696 248.91H321.256V255H285.696V206H320.276V212.09H292.696V248.91ZM375.432 255.56C371.699 255.56 368.245 254.953 365.072 253.74C361.945 252.48 359.215 250.73 356.882 248.49C354.595 246.203 352.799 243.543 351.492 240.51C350.185 237.477 349.532 234.14 349.532 230.5C349.532 226.86 350.185 223.523 351.492 220.49C352.799 217.457 354.619 214.82 356.952 212.58C359.285 210.293 362.015 208.543 365.142 207.33C368.315 206.07 371.769 205.44 375.502 205.44C379.282 205.44 382.759 206.093 385.932 207.4C389.152 208.66 391.882 210.55 394.122 213.07L389.572 217.48C387.705 215.52 385.605 214.073 383.272 213.14C380.939 212.16 378.442 211.67 375.782 211.67C373.029 211.67 370.462 212.137 368.082 213.07C365.749 214.003 363.719 215.31 361.992 216.99C360.265 218.67 358.912 220.677 357.932 223.01C356.999 225.297 356.532 227.793 356.532 230.5C356.532 233.207 356.999 235.727 357.932 238.06C358.912 240.347 360.265 242.33 361.992 244.01C363.719 245.69 365.749 246.997 368.082 247.93C370.462 248.863 373.029 249.33 375.782 249.33C378.442 249.33 380.939 248.863 383.272 247.93C385.605 246.95 387.705 245.457 389.572 243.45L394.122 247.86C391.882 250.38 389.152 252.293 385.932 253.6C382.759 254.907 379.259 255.56 375.432 255.56ZM434.291 255V212.09H417.491V206H458.021V212.09H441.221V255H434.291ZM500.31 255.56C496.576 255.56 493.006 255 489.6 253.88C486.193 252.713 483.51 251.22 481.55 249.4L484.14 243.94C486.006 245.573 488.386 246.927 491.28 248C494.173 249.073 497.183 249.61 500.31 249.61C503.156 249.61 505.466 249.283 507.24 248.63C509.013 247.977 510.32 247.09 511.16 245.97C512 244.803 512.42 243.497 512.42 242.05C512.42 240.37 511.86 239.017 510.74 237.99C509.666 236.963 508.243 236.147 506.47 235.54C504.743 234.887 502.83 234.327 500.73 233.86C498.63 233.393 496.506 232.857 494.36 232.25C492.26 231.597 490.323 230.78 488.55 229.8C486.823 228.82 485.423 227.513 484.35 225.88C483.276 224.2 482.74 222.053 482.74 219.44C482.74 216.92 483.393 214.61 484.7 212.51C486.053 210.363 488.106 208.66 490.86 207.4C493.66 206.093 497.206 205.44 501.5 205.44C504.346 205.44 507.17 205.813 509.97 206.56C512.77 207.307 515.196 208.38 517.25 209.78L514.94 215.38C512.84 213.98 510.623 212.977 508.29 212.37C505.956 211.717 503.693 211.39 501.5 211.39C498.746 211.39 496.483 211.74 494.71 212.44C492.936 213.14 491.63 214.073 490.79 215.24C489.996 216.407 489.6 217.713 489.6 219.16C489.6 220.887 490.136 222.263 491.21 223.29C492.33 224.317 493.753 225.133 495.48 225.74C497.253 226.347 499.19 226.907 501.29 227.42C503.39 227.887 505.49 228.423 507.59 229.03C509.736 229.637 511.673 230.43 513.4 231.41C515.173 232.39 516.596 233.697 517.67 235.33C518.743 236.963 519.28 239.063 519.28 241.63C519.28 244.103 518.603 246.413 517.25 248.56C515.896 250.66 513.796 252.363 510.95 253.67C508.15 254.93 504.603 255.56 500.31 255.56Z" fill="black"/>
</svg>
